name C:\Users\Nicos\Desktop\Gil_twoSteps\Study2\ExperimentalData\IK_Splined\twoSteps_IK_BSplines_120_meshInts_study2_p02_s_01_lowIK_modROI.mot
datacolumns 38
datarows 7
range 0.32800000 0.33397665
endheader
                time	         pelvis_tilt	         pelvis_list	     pelvis_rotation	           pelvis_tx	           pelvis_ty	           pelvis_tz	       hip_flexion_r	     hip_adduction_r	      hip_rotation_r	        knee_angle_r	       ankle_angle_r	    subtalar_angle_r	         mtp_angle_r	       hip_flexion_l	     hip_adduction_l	      hip_rotation_l	        knee_angle_l	       ankle_angle_l	    subtalar_angle_l	         mtp_angle_l	    lumbar_extension	      lumbar_bending	     lumbar_rotation	          arm_flex_r	           arm_add_r	           arm_rot_r	        elbow_flex_r	           pro_sup_r	        wrist_flex_r	         wrist_dev_r	          arm_flex_l	           arm_add_l	           arm_rot_l	        elbow_flex_l	           pro_sup_l	        wrist_flex_l	         wrist_dev_l	
          0.32800000	        -23.90378561	         -6.38044868	          9.46879609	         -1.36070091	          0.83286857	          0.29608284	         79.49117738	         -5.90662145	         -3.03928536	        -86.14914942	          5.85063831	        -23.61575705	          0.18360517	         -5.33168523	         -4.90430209	         10.00057246	        -37.52856747	        -33.62206292	          6.82167356	          6.80440743	        -21.33231829	         17.03355155	         -0.33279597	        -65.85544043	          7.89144887	        -31.53737045	         65.10546177	         72.01388985	         -3.60721639	          8.11913987	         31.24178691	         -6.62633828	         22.79498928	        139.50728334	         49.04822213	         -6.15715015	          5.23727147	
          0.32856335	        -23.82499982	         -6.28717286	          9.41578178	         -1.35789065	          0.83325122	          0.29609817	         79.08536572	         -5.89771439	         -2.99390142	        -85.93324985	          5.77591896	        -23.54302554	          0.24403855	         -5.20727978	         -4.77458975	          9.77442719	        -37.94042977	        -33.63460424	          7.07332168	          6.94409882	        -21.48419492	         16.96210582	         -0.40351332	        -65.52618988	          7.66485724	        -31.42409840	         65.21476744	         72.00421128	         -3.59114656	          8.14112584	         30.63240572	         -6.74015660	         22.50262628	        139.20907627	         49.04941226	         -6.22083322	          5.27285444	
          0.33034331	        -23.57610866	         -5.99409412	          9.24890877	         -1.34901157	          0.83445744	          0.29614871	         77.80112176	         -5.87002422	         -2.85291127	        -85.24908845	          5.54752534	        -23.31082707	          0.43808753	         -4.81226719	         -4.36833276	          9.05803937	        -39.24443111	        -33.67152757	          7.84197659	          7.37989226	        -21.96322216	         16.73715175	         -0.62771853	        -64.48446972	          6.94875724	        -31.06276490	         65.56053951	         71.97438061	         -3.54043062	          8.21052567	         28.70832553	         -7.09723538	         21.57448959	        138.25922439	         49.05069060	         -6.42187268	          5.38564618	
          0.33163333	        -23.39594897	         -5.79085101	          9.13150326	         -1.34257749	          0.83531591	          0.29619730	         76.85891022	         -5.85249258	         -2.76420871	        -84.74199601	          5.42510069	        -23.12910792	          0.59612475	         -4.51509651	         -4.09397439	          8.52840836	        -40.20454839	        -33.68314020	          8.25078189	          7.66448315	        -22.30568079	         16.57851957	         -0.79451126	        -63.72151256	          6.42885408	        -30.78160626	         65.81343862	         71.95696343	         -3.50400049	          8.26044814	         27.32123330	         -7.34178422	         20.87722423	        137.52800066	         49.03770376	         -6.56660503	          5.46943241	
          0.33163333	        -23.39594897	         -5.79085101	          9.13150326	         -1.34257749	          0.83531591	          0.29619730	         76.85891022	         -5.85249258	         -2.76420871	        -84.74199601	          5.42510069	        -23.12910792	          0.59612475	         -4.51509651	         -4.09397439	          8.52840836	        -40.20454839	        -33.68314020	          8.25078189	          7.66448315	        -22.30568079	         16.57851957	         -0.79451126	        -63.72151256	          6.42885408	        -30.78160626	         65.81343862	         71.95696343	         -3.50400049	          8.26044814	         27.32123330	         -7.34178422	         20.87722423	        137.52800066	         49.03770376	         -6.56660503	          5.46943241	
          0.33219669	        -23.31727311	         -5.70209461	          9.08023219	         -1.33976772	          0.83569081	          0.29621852	         76.44744580	         -5.84483650	         -2.72547224	        -84.52054839	          5.37163776	        -23.04975104	          0.66513971	         -4.38532188	         -3.97416190	          8.29711814	        -40.62383226	        -33.68821144	          8.42930745	          7.78876419	        -22.45523271	         16.50924478	         -0.86734976	        -63.38832864	          6.20181202	        -30.65882409	         65.92387983	         71.94935733	         -3.48809143	          8.28224931	         26.71548917	         -7.44857887	         20.57272797	        137.20867475	         49.03203240	         -6.62980975	          5.50602191	
          0.33397665	        -23.06882185	         -5.42340248	          8.91905062	         -1.33089041	          0.83687172	          0.29628891	         75.14515058	         -5.82101355	         -2.60561417	        -83.81897753	          5.21374870	        -22.79612068	          0.88685756	         -3.97312782	         -3.59958756	          7.56483799	        -41.95143608	        -33.70025885	          8.96442615	          8.17449402	        -22.92654563	         16.29095945	         -1.09815846	        -62.33373571	          5.48480880	        -30.26737562	         66.27272905	         71.92619234	         -3.43794934	          8.35098272	         24.80421356	         -7.78331191	         19.60686429	        136.19040825	         49.01125535	         -6.82911950	          5.62193866	
